<svg xmlns="http://www.w3.org/2000/svg" width="1200" height="720" viewBox="0 0 1200 720">
  <rect width="1200" height="720" fill="#f4f6f8"/>
  <rect x="70" y="60" width="1060" height="600" rx="12" fill="#ffffff" stroke="#d8dee8"/>
  <g font-family="Microsoft YaHei, Arial, sans-serif">
    <text x="115" y="120" font-size="28" font-weight="700" fill="#172033">Mini Mall</text>
    <text x="860" y="120" font-size="18" fill="#5b6472">首页　商品　购物车　后台</text>
    <rect x="115" y="165" width="970" height="150" rx="10" fill="#eaf0ff"/>
    <text x="155" y="225" font-size="36" font-weight="700" fill="#172033">精选商品，快速下单</text>
    <text x="155" y="270" font-size="20" fill="#5b6472">全栈电商 MVP：商品、购物车、订单、后台管理</text>
    <g>
      <rect x="115" y="360" width="290" height="220" rx="10" fill="#ffffff" stroke="#d8dee8"/>
      <rect x="140" y="385" width="240" height="92" rx="8" fill="#f1f5f9"/>
      <text x="140" y="515" font-size="22" font-weight="700" fill="#172033">无线键盘</text>
      <text x="140" y="550" font-size="20" fill="#6374ff">¥199</text>
      <rect x="455" y="360" width="290" height="220" rx="10" fill="#ffffff" stroke="#d8dee8"/>
      <rect x="480" y="385" width="240" height="92" rx="8" fill="#f1f5f9"/>
      <text x="480" y="515" font-size="22" font-weight="700" fill="#172033">人体工学鼠标</text>
      <text x="480" y="550" font-size="20" fill="#6374ff">¥159</text>
      <rect x="795" y="360" width="290" height="220" rx="10" fill="#ffffff" stroke="#d8dee8"/>
      <rect x="820" y="385" width="240" height="92" rx="8" fill="#f1f5f9"/>
      <text x="820" y="515" font-size="22" font-weight="700" fill="#172033">扩展坞</text>
      <text x="820" y="550" font-size="20" fill="#6374ff">¥299</text>
    </g>
  </g>
  <text x="70" y="695" font-family="Microsoft YaHei, Arial, sans-serif" font-size="18" fill="#7d8799">示意图：用于展示最终首页应包含的核心区域</text>
</svg>
