<?xml version="1.0" standalone="no"?><!DOCTYPE svg PUBLIC "-//W3C//DTD SVG 1.1//EN" "http://www.w3.org/Graphics/SVG/1.1/DTD/svg11.dtd"><svg t="1748347166596" class="icon" viewBox="0 0 1024 1024" version="1.1" xmlns="http://www.w3.org/2000/svg" p-id="26144" xmlns:xlink="http://www.w3.org/1999/xlink" width="200" height="200"><path d="M752.256 663.04l-175.061333-0.554667-87.168-151.893333 88.064-151.381333 175.061333 0.554666 87.125333 151.893334-88.021333 151.381333z" fill="#C12766" p-id="26145"></path><path d="M475.477333 821.76l-175.061333-0.512L213.333333 669.354667l88.021334-151.338667 175.061333 0.512 87.082667 151.893333-88.021334 151.381334z" fill="#3E489F" p-id="26146"></path><path d="M750.506667 981.333333l-175.104-0.554666-87.04-151.893334 87.978666-151.338666 175.104 0.512 87.125334 151.893333L750.506667 981.333333z" fill="#714099" p-id="26147"></path><path d="M476.928 505.429333l-175.061333-0.512-87.04-151.893333 87.978666-151.381333 175.061334 0.554666 87.082666 151.893334-88.021333 151.338666z" fill="#78932C" p-id="26148"></path><path d="M752.085333 346.453333l-175.061333-0.512-87.082667-151.893333L577.962667 42.666667l175.061333 0.554666 87.04 151.893334-87.978667 151.338666z" fill="#CF242A" p-id="26149"></path><path d="M665.002667 194.56m-26.538667 0a26.538667 26.538667 0 1 0 53.077333 0 26.538667 26.538667 0 1 0-53.077333 0Z" fill="#FFFFFF" p-id="26150"></path><path d="M389.888 353.536m-26.538667 0a26.538667 26.538667 0 1 0 53.077334 0 26.538667 26.538667 0 1 0-53.077334 0Z" fill="#FFFFFF" p-id="26151"></path><path d="M388.437333 669.909333m-26.538666 0a26.538667 26.538667 0 1 0 53.077333 0 26.538667 26.538667 0 1 0-53.077333 0Z" fill="#FFFFFF" p-id="26152"></path><path d="M663.424 829.44m-26.538667 0a26.538667 26.538667 0 1 0 53.077334 0 26.538667 26.538667 0 1 0-53.077334 0Z" fill="#FFFFFF" p-id="26153"></path><path d="M397.354667 322.56l240.896-138.026667 20.010666 34.901334-240.896 138.026666-20.053333-34.901333z m-28.586667 51.797333l40.234667-0.128 0.853333 277.632-40.234667 0.128-0.853333-277.632z m49.450667 289.834667l-20.522667 34.56 238.677333 141.824 20.565334-34.56-238.72-141.824z" fill="#FFFFFF" p-id="26154"></path><path d="M665.130667 511.104m-26.538667 0a26.538667 26.538667 0 1 0 53.077333 0 26.538667 26.538667 0 1 0-53.077333 0Z" fill="#FFFFFF" p-id="26155"></path><path d="M684.458667 213.12l-40.32 0.128 0.853333 277.632 40.32-0.128-0.853333-277.632z m1.493333 318.293333l-40.32 0.085334 0.853333 277.674666 40.32-0.128-0.853333-277.632z" fill="#FFFFFF" p-id="26156"></path><path d="M397.781333 641.621333l240.896-137.984 20.010667 34.901334-240.938667 138.026666-19.968-34.944z" fill="#FFFFFF" p-id="26157"></path><path d="M398.592 382.506667l20.522667-34.56 238.72 141.781333-20.522667 34.56-238.72-141.781333z" fill="#FFFFFF" p-id="26158"></path></svg>