<?xml version="1.0" standalone="no"?><!DOCTYPE svg PUBLIC "-//W3C//DTD SVG 1.1//EN" "http://www.w3.org/Graphics/SVG/1.1/DTD/svg11.dtd"><svg t="1748348243690" class="icon" viewBox="0 0 1024 1024" version="1.1" xmlns="http://www.w3.org/2000/svg" p-id="9299" xmlns:xlink="http://www.w3.org/1999/xlink" width="200" height="200"><path d="M482.688 256h63.36v63.36h-63.36V256z m303.36 212.672c-26.432-25.216-33.664-100.288 0-133.568l9.92-11.264 10.048 9.664c32.192 24.704 50.496 52.544 54.912 83.648 44.8-13.12 77.696-4.48 111.616 16.128-22.016 44.352-55.872 72.192-131.584 69.184C772.416 667.52 625.024 766.4 406.272 768c-115.52 0-198.208-40.256-248.192-123.904-27.776-49.28-33.664-84.8-28.288-152.896h73.28l14.976 1.6H637.76l14.976-1.6c59.392 1.664 96.256-1.92 133.248-22.528zM286.272 424.96h-63.36v63.36h63.36v-63.36z m23.744 0h63.36v63.36h-63.36v-63.36z m150.4 0h-63.296v63.36h63.36v-63.36z m22.208 0h63.36v63.36h-63.36v-63.36zM373.44 340.48h-63.36v63.36h63.36v-63.36z m23.744 0h63.36v63.36h-63.36v-63.36z m148.864 0h-63.36v63.36h63.36v-63.36z m86.016 84.48h-63.36v63.36h63.36v-63.36z" fill="#3965BD" p-id="9300"></path></svg>