<?xml version="1.0" standalone="no"?><!DOCTYPE svg PUBLIC "-//W3C//DTD SVG 1.1//EN" "http://www.w3.org/Graphics/SVG/1.1/DTD/svg11.dtd"><svg t="1748350492925" class="icon" viewBox="0 0 1024 1024" version="1.1" xmlns="http://www.w3.org/2000/svg" p-id="31764" xmlns:xlink="http://www.w3.org/1999/xlink" width="200" height="200"><path d="M84.155733 759.2448h60.270934v14.037333H84.155733v31.1296h62.711467v14.1824H56.081067V715.912533h90.786133v14.190934H84.155733zM247.227733 804.096h4.881067v14.344533H160.110933v-46.993066h59.050667v-13.568h-59.050667v-14.353067h87.1168v60.578133z m-58.897066 0h30.8224v-18.4576H188.330667v18.466133zM351.556267 818.440533H266.112v-14.336h57.216v-16.324266h-57.216v-44.253867h85.444267v14.344533h-57.3696v15.872h57.3696zM395.1616 743.5264l20.906667 35.4048 22.8864-35.4048h31.735466l-67.285333 104.669867h-31.889067l28.373334-43.946667-35.089067-60.7232zM577.3056 789.154133h-63.317333v14.9504h63.317333v14.336H485.76v-74.914133h91.5456v45.627733z m-63.317333-14.037333h35.242666v-17.237333h-35.242666v17.237333zM628.386133 743.68l17.390934 18.773333 17.544533-18.773333h32.955733l-34.0224 36.317867 36.010667 38.442666h-32.955733l-19.5328-20.744533-19.370667 20.744533h-32.964267l35.857067-38.442666-33.877333-36.317867zM715.6224 743.5264h83.310933v14.344533h-55.236266v46.2336h55.236266v14.190934h-83.310933zM910.2848 789.154133h-63.317333v14.9504h63.317333v14.336H818.7392v-74.914133h91.5456v45.627733z m-63.317333-14.037333h35.242666v-17.237333h-35.242666v17.237333zM956.629333 818.440533h-28.228266V716.066133h28.228266z" fill="#000000" p-id="31765"></path><path d="M460.7488 549.998933v33.4848H131.498667V179.2h325.922133v33.493333H243.456v148.795734h202.871467v32.529066H243.456v155.9808zM862.2592 549.998933v33.4848H533.0176V179.2h325.9136v33.493333H644.983467v148.795734h202.862933v32.529066H644.983467v155.9808z" fill="#000000" p-id="31766"></path><path d="M531.285333 682.897067c-138.6752 0-267.3408 16.512-373.444266 44.765866 95.6672-45.866667 227.652267-74.120533 373.444266-74.120533 145.792 0 277.777067 28.253867 373.376 74.120533-106.0352-28.245333-234.7008-44.765867-373.376-44.765866z" fill="#000000" p-id="31767"></path></svg>