<?xml version="1.0" standalone="no"?><!DOCTYPE svg PUBLIC "-//W3C//DTD SVG 1.1//EN" "http://www.w3.org/Graphics/SVG/1.1/DTD/svg11.dtd"><svg t="1748348515204" class="icon" viewBox="0 0 2944 1024" version="1.1" xmlns="http://www.w3.org/2000/svg" p-id="11377" xmlns:xlink="http://www.w3.org/1999/xlink" width="575" height="200"><path d="M225.728 782.656c123.392 0 197.632-67.904 197.632-189.056v-366.72h-137.6v365.632c0 48-21.76 73.472-62.272 73.472-39.36 0-64.832-27.008-65.28-69.76H26.24c0 115.2 77.632 186.432 199.488 186.432zM671.232 768V519.744c0-41.984 25.152-70.464 62.272-70.464 38.272 0 59.648 22.848 59.648 64.832V768h126.72V517.504c0-40.896 23.68-68.224 61.504-68.224 40.128 0 60.352 22.08 60.352 67.072V768h132.416V482.624c0-85.504-54.016-141.76-136.128-141.76-58.88 0-107.648 31.168-124.864 78.72h-7.168c-15.744-50.24-56.256-78.72-115.84-78.72-54.784 0-99.008 30.4-115.2 78.72h-7.04V350.72H538.88V768h132.352z m791.68 9.728c107.968 0 184.448-51.328 199.04-132.736h-121.088c-8.96 24.384-35.584 38.656-74.24 38.656-50.624 0-81.728-33.792-82.88-88.128v-6.784h280.896v-36.736c0-133.12-75.008-211.136-203.648-211.136-129.344 0-207.744 83.648-207.744 221.248 0 136.896 76.48 215.68 209.6 215.68zM1536 512.64h-151.488c3.392-47.296 33.728-77.632 77.248-77.632 44.224 0 72 28.864 74.24 77.632z m397.12 256.128c25.152 0 49.536-2.24 63.36-5.248v-94.528l-11.52 1.152a277.12 277.12 0 0 1-21.824 0.704c-34.56 0-50.624-15.36-50.624-46.848V454.848h83.968v-98.56h-83.968V254.912h-132.416v101.248h-64.128v98.624h64.128v198.784c0 81.728 43.136 115.136 153.024 115.136z m338.24 8.96c108.032 0 184.512-51.328 199.168-132.736h-121.152c-8.96 24.384-35.648 38.656-74.24 38.656-50.624 0-81.792-33.792-82.88-88.128v-6.784h280.896v-36.736c0-133.12-75.008-211.136-203.648-211.136-129.408 0-207.744 83.648-207.744 221.248 0 136.896 76.48 215.68 209.6 215.68z m73.152-265.088h-151.488c3.328-47.296 33.728-77.632 77.248-77.632 44.224 0 72 28.864 74.24 77.632zM2688 768V547.136c0-58.112 39.04-91.136 97.472-91.136 20.288 0 46.912 3.392 57.024 7.488V350.72c-9.728-4.16-30.4-6.4-48-6.4-52.096 0-92.608 33.024-102.72 75.008h-7.168V350.656h-128.96V768H2688z" fill="#4C8EE6" p-id="11378"></path></svg>