<?xml version="1.0" standalone="no"?><!DOCTYPE svg PUBLIC "-//W3C//DTD SVG 1.1//EN" "http://www.w3.org/Graphics/SVG/1.1/DTD/svg11.dtd"><svg t="1748345210845" class="icon" viewBox="0 0 7825 1024" version="1.1" xmlns="http://www.w3.org/2000/svg" p-id="5111" xmlns:xlink="http://www.w3.org/1999/xlink" width="1528.3203125" height="200"><path d="M3378.140864 661.830361h517.066431l-273.403919-439.870211-501.798361 795.299891h-228.363875l610.340741-955.331891c26.531903-38.590469 70.761929-61.912867 119.821495-61.912867 47.439531 0 91.669557 22.51238 117.406725 60.308115l612.755511 956.936643H4123.601737l-107.747645-177.71484h-523.500724l-114.197221-177.71484zM5750.377218 839.529917V9.65908h-193.792928v911.101864c0 24.92715 9.643796 49.059566 28.136654 67.552424s43.420009 28.946672 70.761929 28.946673h883.759944l114.197221-177.71484H5750.361935z m-3206.141998-148.768167c188.183938 0 340.971627-151.977672 340.971628-340.146326 0-188.183938-152.78769-340.971627-340.971628-340.971628h-847.813495v1007.631528h193.731795v-829.886121h641.2284c90.064805 0 162.431486 73.191982 162.431486 163.256787 0 90.049522-72.366681 163.226221-162.431486 163.226221l-546.334055-0.794735 578.490231 504.197848h281.458247l-389.205892-326.483007h88.460053zM503.892181 1017.260041C225.735138 1017.275324 0 792.10567 0 513.872211 0 235.623468 225.735138 9.674363 503.892181 9.674363h585.658124c278.218176 0 503.785197 225.949105 503.785197 504.197848 0 278.233459-225.567021 503.38783-503.80048 503.38783H503.892181z m572.636707-177.71484c180.206027 0 326.162057-145.558663 326.162057-325.688273 0-180.114327-145.956031-326.467724-326.162057-326.467725h-559.676423c-180.144893 0-326.177341 146.353398-326.177341 326.483008 0 180.114327 146.032447 325.67299 326.162058 325.67299h559.676422z m3679.925971 177.71484c-278.218176 0-504.197848-225.154371-504.197848-503.38783 0-278.248743 225.979672-504.197848 504.197848-504.197848h695.606573l-113.402487 177.71484H4769.323443c-180.12961 0-326.483008 146.353398-326.483008 326.483008 0 180.114327 146.353398 325.67299 326.483008 325.67299h698.800794l-114.197221 177.71484h-597.472157z m2369.836868-177.71484c-148.768168 0-275.023955-99.708601-313.614424-237.228221h828.266086l114.181937-177.71484h-942.448023c38.590469-136.709601 164.846256-237.212937 313.614424-237.212937h568.540768L7809.793884 9.643796h-696.386024c-278.233459 0-504.197848 225.964389-504.197848 504.197848 0 278.248743 225.964389 503.403113 504.197848 503.403114h597.48744L7825.077238 839.545201h-698.800794z" fill="#EA1B22" p-id="5112"></path></svg>